<svg xmlns="http://www.w3.org/2000/svg" version="1.1" xmlns:xlink="http://www.w3.org/1999/xlink" width="441.4" height="441.42"><svg xmlns="http://www.w3.org/2000/svg" viewBox="0 0 441.4 441.42"><defs><style>.cls-1{fill:#fff;}</style></defs><g id="SvgjsG1116" data-name="Layer 2"><g id="SvgjsG1115" data-name="Layer 1"><path class="cls-1" d="M441.4,220.72a220.66,220.66,0,0,1-6.86,54.75c-.15.59-.29,1.18-.46,1.77a211.58,211.58,0,0,1-6.65,20.94,219.59,219.59,0,0,1-22.38,43.89,208.44,208.44,0,0,1-12.61,17.24c-.94,1.18-1.9,2.36-2.92,3.52a214.31,214.31,0,0,1-26.69,26.69c-1.16,1-2.34,2-3.52,2.92a213.38,213.38,0,0,1-17.24,12.63,219.51,219.51,0,0,1-43.89,22.36,216.6,216.6,0,0,1-21,6.67c-.59.17-1.18.31-1.77.46a220.6,220.6,0,0,1-54.75,6.86c-1.57,0-3.13,0-4.7-.06A219.66,219.66,0,0,1,78.57,389.52a215.07,215.07,0,0,1-26.7-26.69A219.73,219.73,0,0,1,.06,225.42c0-1.57-.06-3.13-.06-4.7a221.33,221.33,0,0,1,4.59-45A5.53,5.53,0,0,1,13.91,173l31.67,31.67A5.51,5.51,0,0,1,47.17,209q-.39,5.82-.4,11.74a174.21,174.21,0,0,0,5.1,41.94q1.83,7.41,4.3,14.58c.77,2.29,1.6,4.53,2.47,6.76a174.51,174.51,0,0,0,98.77,98.78c2.23.86,4.48,1.69,6.77,2.47q7.11,2.46,14.49,4.27a173.35,173.35,0,0,0,42,5.13c4.79,0,9.55-.2,14.25-.59A169.26,169.26,0,0,0,260.76,390c.66-.14,1.31-.31,2-.48q7.38-1.81,14.49-4.27a172.2,172.2,0,0,0,30.9-14.14,168.87,168.87,0,0,0,17.88-12A174.08,174.08,0,0,0,359.14,326a169.9,169.9,0,0,0,11.95-17.9,172,172,0,0,0,14.14-30.88q2.46-7.17,4.29-14.58c.17-.65.34-1.27.47-1.92A169.58,169.58,0,0,0,394,235c.39-4.7.59-9.46.59-14.25a173.72,173.72,0,0,0-5.11-41.94q-1.81-7.41-4.29-14.58c-.77-2.31-1.62-4.57-2.49-6.82A174.57,174.57,0,0,0,284,58.68c-2.25-.87-4.51-1.72-6.82-2.49q-7.16-2.46-14.58-4.3a174.21,174.21,0,0,0-41.94-5.1q-5.91,0-11.74.4a5.51,5.51,0,0,1-4.29-1.59L173,13.91a5.53,5.53,0,0,1,2.74-9.32A221.21,221.21,0,0,1,220.7,0c1.59,0,3.15,0,4.72.06A220.47,220.47,0,0,1,441.34,216Q441.4,218.34,441.4,220.72Z"></path><path class="cls-1" d="M296.07,265.58l-5.25,47a5,5,0,0,1-8.42,2.95l-12.17-12.17-106-106L131.07,164.2l-48.8-48.8L52.12,85.25a4.87,4.87,0,0,1-.27-6.63l0,0a218.63,218.63,0,0,1,26.7-26.7l0,0a4.91,4.91,0,0,1,6.67.28L197.33,164.2l97.32,97.33A4.91,4.91,0,0,1,296.07,265.58Z"></path><path class="cls-1" d="M222.4,95.43v50.63A5.53,5.53,0,0,1,213,150L104.22,41.24a5.54,5.54,0,0,1,1-8.64,216.77,216.77,0,0,1,34.65-17.32,5.52,5.52,0,0,1,5.91,1.26l75,75A5.58,5.58,0,0,1,222.4,95.43Z"></path><path class="cls-1" d="M267.77,204.79l-23.16-23.16a5.52,5.52,0,0,1-1.62-3.91V127.09a5.53,5.53,0,0,1,9.44-3.91l23.17,23.17a5.52,5.52,0,0,1,1.62,3.91v50.62A5.53,5.53,0,0,1,267.77,204.79Z"></path><path class="cls-1" d="M200.9,277.24H150.28a5.53,5.53,0,0,1-3.91-1.62l-94.5-94.5-.46-.46L35,164.2,16.54,145.79a5.51,5.51,0,0,1-1.25-5.92A217.89,217.89,0,0,1,32.6,105.23a5.54,5.54,0,0,1,8.63-1l10.64,10.65L70.31,133.3l30.9,30.9,63,63,40.63,40.63A5.53,5.53,0,0,1,200.9,277.24Z"></path></g></g></svg><style>@media (prefers-color-scheme: light) { :root { filter: contrast(1) brightness(0.1); } }
@media (prefers-color-scheme: dark) { :root { filter: none; } }
</style></svg>