<svg xmlns="http://www.w3.org/2000/svg" viewBox="0 0 391.78 391.8"><defs><style>.cls-1{fill:#fff;}</style></defs><g id="Layer_2" data-name="Layer 2"><g id="Layer_1-2" data-name="Layer 1"><path class="cls-1" d="M391.78,195.91a195.61,195.61,0,0,1-6.09,48.59c-.13.53-.26,1.05-.4,1.57a189.66,189.66,0,0,1-5.91,18.59,194.43,194.43,0,0,1-19.86,39,183.9,183.9,0,0,1-11.2,15.3c-.83,1.05-1.68,2.09-2.58,3.13a192.08,192.08,0,0,1-23.69,23.69c-1,.9-2.08,1.75-3.13,2.58a186.31,186.31,0,0,1-15.3,11.21,194.22,194.22,0,0,1-57.56,25.77c-.53.15-1.05.28-1.57.41a195.75,195.75,0,0,1-48.6,6.09c-1.39,0-2.78,0-4.17-.05a195.06,195.06,0,0,1-122-46A191.47,191.47,0,0,1,46,322.05a195.17,195.17,0,0,1-46-122c0-1.39,0-2.78,0-4.17A196.62,196.62,0,0,1,4.07,156a4.92,4.92,0,0,1,8.28-2.43l28.11,28.11a4.92,4.92,0,0,1,1.41,3.8q-.36,5.18-.36,10.43A154.35,154.35,0,0,0,46,233.13q1.62,6.59,3.82,12.94c.68,2,1.42,4,2.19,6a154.9,154.9,0,0,0,87.67,87.67c2,.77,4,1.5,6,2.19q6.32,2.19,12.86,3.8a154,154,0,0,0,37.31,4.55q6.39,0,12.65-.53a150.82,150.82,0,0,0,22.91-3.6c.59-.13,1.16-.27,1.75-.42q6.56-1.62,12.86-3.8a152.63,152.63,0,0,0,27.42-12.55,148.79,148.79,0,0,0,15.87-10.63,154.23,154.23,0,0,0,29.42-29.39,154.73,154.73,0,0,0,23.16-43.3c1.45-4.23,2.73-8.55,3.81-12.94.15-.57.29-1.13.41-1.7a152.43,152.43,0,0,0,3.6-22.87q.51-6.27.52-12.65a154.43,154.43,0,0,0-4.53-37.23c-1.08-4.38-2.36-8.7-3.81-12.94-.69-2.05-1.44-4.06-2.21-6.05a155,155,0,0,0-87.61-87.61c-2-.77-4-1.52-6.05-2.21-4.24-1.45-8.56-2.73-12.94-3.81a154.43,154.43,0,0,0-37.23-4.53c-3.5,0-7,.12-10.42.35a4.87,4.87,0,0,1-3.81-1.41L153.54,12.35A4.91,4.91,0,0,1,156,4.07,196.64,196.64,0,0,1,195.89,0c1.41,0,2.8,0,4.19.05A195.67,195.67,0,0,1,391.73,191.7C391.77,193.09,391.78,194.5,391.78,195.91Z"/><path class="cls-1" d="M262.79,235.72l-4.66,41.72a4.39,4.39,0,0,1-7.47,2.62l-10.8-10.8-94.14-94.13-29.38-29.39L73,102.43,46.26,75.67A4.33,4.33,0,0,1,46,69.78l0,0a192.85,192.85,0,0,1,23.7-23.69l0,0a4.34,4.34,0,0,1,5.91.25l99.46,99.46,86.39,86.39A4.36,4.36,0,0,1,262.79,235.72Z"/><path class="cls-1" d="M197.4,84.71v44.93a4.91,4.91,0,0,1-8.38,3.47L92.5,36.6a4.92,4.92,0,0,1,.9-7.66,192.44,192.44,0,0,1,30.76-15.38,4.9,4.9,0,0,1,5.24,1.12L196,81.23A4.94,4.94,0,0,1,197.4,84.71Z"/><path class="cls-1" d="M237.67,181.77l-20.56-20.56a4.9,4.9,0,0,1-1.43-3.47V112.8a4.91,4.91,0,0,1,8.38-3.47l20.56,20.57a4.91,4.91,0,0,1,1.44,3.47V178.3A4.91,4.91,0,0,1,237.67,181.77Z"/><path class="cls-1" d="M178.31,246.07H133.39a4.9,4.9,0,0,1-3.47-1.43L46,160.76l-.41-.41L31,145.74,14.68,129.4a4.9,4.9,0,0,1-1.11-5.25A194.78,194.78,0,0,1,28.93,93.4a4.92,4.92,0,0,1,7.67-.89L46,102l16.37,16.37,27.42,27.42,55.89,55.89,36.06,36.06A4.9,4.9,0,0,1,178.31,246.07Z"/></g></g></svg>